<svg width="34" height="34" viewBox="0 0 34 34" fill="none" xmlns="http://www.w3.org/2000/svg">
<mask id="mask0_9_2" style="mask-type:alpha" maskUnits="userSpaceOnUse" x="0" y="6" width="9" height="21">
<path d="M0 6.76445H8.78942V26.9054H0V6.76445Z" fill="white"/>
</mask>
<g mask="url(#mask0_9_2)">
<path fill-rule="evenodd" clip-rule="evenodd" d="M6.3582 23.3983C6.99806 24.6915 7.81839 25.8739 8.78941 26.9054H6.17333C5.75121 26.9054 5.37725 26.6876 5.15463 26.3558L0.149652 17.4429C0.14656 17.44 0.14656 17.4373 0.143631 17.4343C0.0516877 17.2557 -6.10352e-05 17.0492 -6.10352e-05 16.8348C-6.10352e-05 16.6591 0.10067 16.3332 0.10067 16.3306C0.114339 16.2942 5.17091 7.28578 5.17091 7.28578C5.17383 7.28009 5.17644 7.28009 5.17644 7.27742C5.40133 6.96529 5.76488 6.76445 6.17089 6.76445H8.78941C7.81839 7.79624 6.99806 8.97765 6.3582 10.2709C5.38246 12.2412 4.8321 14.4713 4.8321 16.8348C4.8321 19.1985 5.38246 21.4281 6.3582 23.3983Z" fill="white"/>
</g>
<path fill-rule="evenodd" clip-rule="evenodd" d="M12.8656 6.76539L11.7253 8.78947C11.5007 9.10646 11.1352 9.31466 10.726 9.31466H7.92096C8.36131 8.63098 8.8635 7.98814 9.42216 7.39451L10.0122 6.76539H12.8656Z" fill="white"/>
<path fill-rule="evenodd" clip-rule="evenodd" d="M26.9943 17.5832C26.9943 17.5832 25.7965 19.6483 25.7441 19.707C25.5195 19.9698 25.1895 20.1324 24.8196 20.1324H20.5707L17.013 26.4772C16.7844 26.7389 16.454 26.907 16.0845 26.907H10.0123L9.42223 26.2773C8.86764 25.6849 8.36138 25.0409 7.92087 24.3528H15.3439C15.3439 24.3528 18.8577 18.0946 18.8618 18.0905C19.0691 17.8096 19.3866 17.6195 19.752 17.5832H26.9943Z" fill="white"/>
<path fill-rule="evenodd" clip-rule="evenodd" d="M30.5958 24.8576C31.3629 23.6391 31.9442 22.3157 32.3251 20.9347L33.6376 23.2613C33.8499 23.6372 33.854 24.0794 33.6874 24.4431L28.7032 33.3694C28.7024 33.3737 28.6998 33.3747 28.6988 33.3782C28.5948 33.55 28.4477 33.6991 28.2673 33.8072C28.119 33.8956 27.795 33.9699 27.7923 33.971C27.7555 33.9769 17.6417 33.9998 17.6417 33.9998C17.6355 34.0007 17.634 33.998 17.6314 33.9998C17.2563 33.9567 16.9047 33.7347 16.7009 33.3722L15.3867 31.0434C16.7413 31.3891 18.1473 31.5262 19.5559 31.4459C21.7032 31.3245 23.854 30.6948 25.8422 29.5088C27.8295 28.3221 29.429 26.7142 30.5958 24.8576Z" fill="white"/>
<path fill-rule="evenodd" clip-rule="evenodd" d="M17.9685 30.5383C17.1669 30.4889 16.3741 30.3615 15.5991 30.1624L14.7718 29.9548L13.3411 27.4181L15.6172 27.4138C15.9999 27.4543 16.357 27.6762 16.5599 28.0435L17.9685 30.5383Z" fill="white"/>
<path fill-rule="evenodd" clip-rule="evenodd" d="M31.7096 19.8429L31.4764 20.6897C31.2608 21.4822 30.9701 22.2472 30.6183 22.9853L26.8929 16.3879C26.8929 16.3879 19.8619 16.3969 19.8568 16.3969C19.5138 16.3561 19.1965 16.1701 18.9857 15.8625L15.349 9.41887C15.349 9.41887 17.6865 9.45033 17.7613 9.46422C18.0957 9.53201 18.4001 9.74506 18.5849 10.0753L20.7159 13.8518L27.8354 13.8337C28.1744 13.9062 28.4779 14.1193 28.6626 14.4454L31.7096 19.8429Z" fill="white"/>
<path fill-rule="evenodd" clip-rule="evenodd" d="M19.7226 2.564C18.3141 2.48919 16.908 2.63161 15.5557 2.9824L16.86 0.650874C17.0705 0.27414 17.4404 0.0492046 17.831 0.0158995L27.8398 0.000836814C27.8432 0 27.8457 0.0013389 27.8491 0C28.0453 0.0071966 28.2448 0.0637652 28.4263 0.17071C28.5742 0.258241 28.7986 0.510456 28.8002 0.51213C28.8245 0.542255 33.8939 9.54386 33.8939 9.54386C33.8972 9.54838 33.8954 9.55106 33.898 9.55206C34.0487 9.90904 34.0365 10.3323 33.8345 10.6946L32.5283 13.0284C32.1429 11.6491 31.5564 10.3275 30.7859 9.11223C29.612 7.25969 28.0074 5.65719 26.0159 4.47829C24.0234 3.29905 21.87 2.67697 19.7226 2.564Z" fill="white"/>
<path fill-rule="evenodd" clip-rule="evenodd" d="M31.9168 14.1193L30.4944 16.6594L29.3585 14.6353C29.2003 14.2733 29.2088 13.8475 29.4161 13.4806L30.8115 10.9811C31.1686 11.7146 31.4592 12.4843 31.6838 13.2768L31.9168 14.1193Z" fill="white"/>
<path fill-rule="evenodd" clip-rule="evenodd" d="M17.9598 16.356C18.0958 16.682 18.0958 17.0579 17.9417 17.4023L14.3274 23.8592C14.3274 23.8592 13.1872 21.7581 13.1603 21.6861C13.0549 21.3554 13.0814 20.9747 13.2663 20.649L15.3834 16.8632L11.8171 10.5235C11.7073 10.1887 11.7338 9.81276 11.9146 9.48691L14.943 4.0754L15.7713 3.86285C16.5461 3.65883 17.3391 3.53181 18.1404 3.48243L14.4374 10.0936C14.4374 10.0936 17.9557 16.3518 17.9598 16.356Z" fill="white"/>
</svg>
