<svg width="34" height="35" viewBox="0 0 34 35" fill="none" xmlns="http://www.w3.org/2000/svg">
<mask id="mask0_9_15" style="mask-type:alpha" maskUnits="userSpaceOnUse" x="0" y="7" width="9" height="21">
<path d="M0 7.02483H8.78942V27.1658H0V7.02483Z" fill="white"/>
</mask>
<g mask="url(#mask0_9_15)">
<path fill-rule="evenodd" clip-rule="evenodd" d="M6.3582 23.6587C6.99806 24.9519 7.81839 26.1343 8.78941 27.1658H6.17333C5.75121 27.1658 5.37725 26.948 5.15463 26.6161L0.149652 17.7032C0.14656 17.7004 0.14656 17.6977 0.143631 17.6947C0.0516877 17.5161 -6.10352e-05 17.3096 -6.10352e-05 17.0952C-6.10352e-05 16.9195 0.10067 16.5936 0.10067 16.5909C0.114339 16.5546 5.17091 7.54616 5.17091 7.54616C5.17383 7.54047 5.17644 7.54047 5.17644 7.53779C5.40133 7.22566 5.76488 7.02483 6.17089 7.02483H8.78941C7.81839 8.05662 6.99806 9.23803 6.3582 10.5312C5.38246 12.5016 4.8321 14.7317 4.8321 17.0952C4.8321 19.4589 5.38246 21.6885 6.3582 23.6587Z" fill="#F3C623"/>
</g>
<path fill-rule="evenodd" clip-rule="evenodd" d="M12.8656 7.02576L11.7253 9.04985C11.5007 9.36683 11.1352 9.57503 10.726 9.57503H7.92096C8.36131 8.89136 8.8635 8.24852 9.42216 7.65488L10.0122 7.02576H12.8656Z" fill="#F3C623"/>
<path fill-rule="evenodd" clip-rule="evenodd" d="M26.9943 17.8436C26.9943 17.8436 25.7964 19.9086 25.744 19.9674C25.5195 20.2301 25.1895 20.3928 24.8196 20.3928H20.5706L17.013 26.7375C16.7844 26.9993 16.454 27.1673 16.0844 27.1673H10.0123L9.4222 26.5377C8.86761 25.9452 8.36135 25.3012 7.92084 24.6132H15.3438C15.3438 24.6132 18.8577 18.355 18.8618 18.3508C19.0691 18.07 19.3866 17.8799 19.7519 17.8436H26.9943Z" fill="#F3C623"/>
<path fill-rule="evenodd" clip-rule="evenodd" d="M30.5958 25.118C31.3629 23.8995 31.9442 22.5761 32.3251 21.195L33.6376 23.5217C33.8499 23.8976 33.854 24.3398 33.6874 24.7035L28.7032 33.6298C28.7024 33.6341 28.6998 33.6351 28.6988 33.6386C28.5948 33.8103 28.4477 33.9595 28.2673 34.0676C28.119 34.1559 27.795 34.2302 27.7923 34.2314C27.7555 34.2373 17.6417 34.2602 17.6417 34.2602C17.6355 34.261 17.634 34.2584 17.6314 34.2602C17.2563 34.217 16.9047 33.9951 16.7009 33.6326L15.3867 31.3037C16.7413 31.6495 18.1473 31.7866 19.5559 31.7063C21.7032 31.5849 23.854 30.9551 25.8422 29.7692C27.8295 28.5824 29.429 26.9746 30.5958 25.118Z" fill="#F3C623"/>
<path fill-rule="evenodd" clip-rule="evenodd" d="M17.9685 30.7986C17.1669 30.7493 16.3741 30.6219 15.5991 30.4227L14.7718 30.2152L13.3411 27.6785L15.6172 27.6741C15.9999 27.7146 16.357 27.9366 16.5599 28.3039L17.9685 30.7986Z" fill="#F3C623"/>
<path fill-rule="evenodd" clip-rule="evenodd" d="M31.7096 20.1033L31.4764 20.9501C31.2608 21.7426 30.9701 22.5076 30.6183 23.2457L26.8929 16.6482C26.8929 16.6482 19.8619 16.6573 19.8568 16.6573C19.5138 16.6164 19.1965 16.4305 18.9857 16.1229L15.349 9.67924C15.349 9.67924 17.6865 9.71071 17.7613 9.7246C18.0957 9.79238 18.4001 10.0054 18.5849 10.3356L20.7159 14.1122L27.8354 14.0941C28.1744 14.1666 28.4779 14.3796 28.6626 14.7058L31.7096 20.1033Z" fill="#F3C623"/>
<path fill-rule="evenodd" clip-rule="evenodd" d="M19.7226 2.82437C18.3141 2.74956 16.908 2.89199 15.5557 3.24278L16.86 0.91125C17.0705 0.534516 17.4404 0.309581 17.831 0.276275L27.8398 0.261213C27.8432 0.260376 27.8457 0.261715 27.8491 0.260376C28.0453 0.267573 28.2448 0.324141 28.4263 0.431086C28.5742 0.518617 28.7986 0.770832 28.8002 0.772506C28.8245 0.802631 33.8939 9.80424 33.8939 9.80424C33.8972 9.80875 33.8954 9.81143 33.898 9.81244C34.0487 10.1694 34.0365 10.5927 33.8345 10.955L32.5283 13.2887C32.1429 11.9095 31.5564 10.5878 30.7859 9.37261C29.612 7.52007 28.0074 5.91757 26.0159 4.73867C24.0234 3.55943 21.87 2.93734 19.7226 2.82437Z" fill="#F3C623"/>
<path fill-rule="evenodd" clip-rule="evenodd" d="M31.9168 14.3797L30.4944 16.9197L29.3585 14.8957C29.2003 14.5337 29.2088 14.1079 29.4161 13.741L30.8116 11.2415C31.1686 11.975 31.4592 12.7447 31.6838 13.5372L31.9168 14.3797Z" fill="#F3C623"/>
<path fill-rule="evenodd" clip-rule="evenodd" d="M17.9598 16.6163C18.0958 16.9424 18.0958 17.3183 17.9417 17.6627L14.3274 24.1196C14.3274 24.1196 13.1872 22.0185 13.1603 21.9465C13.0549 21.6158 13.0814 21.2351 13.2663 20.9094L15.3834 17.1236L11.8171 10.7839C11.7073 10.449 11.7338 10.0731 11.9146 9.74728L14.943 4.33577L15.7713 4.12322C16.5461 3.91921 17.3391 3.79218 18.1404 3.74281L14.4374 10.354C14.4374 10.354 17.9557 16.6122 17.9598 16.6163Z" fill="#F3C623"/>
</svg>
