<svg width="97" height="24" viewBox="0 0 97 24" fill="none" xmlns="http://www.w3.org/2000/svg">
<path d="M11.9 0C5.4 0 0 5.4 0 11.9C0 18.4 5.4 23.8 11.9 23.8C18.4 23.8 23.8 18.4 23.8 11.9C23.9 5.4 18.5 0 11.9 0ZM11.9 22.4C6.1 22.4 1.4 17.7 1.4 11.9C1.4 6.1 6.2 1.5 11.9 1.5C17.6 1.5 22.4 6.2 22.4 12C22.4 17.8 17.7 22.4 11.9 22.4V22.4Z" fill="#F3C623"/>
<path d="M11.8999 13.4C12.7283 13.4 13.3999 12.7285 13.3999 11.9C13.3999 11.0716 12.7283 10.4 11.8999 10.4C11.0715 10.4 10.3999 11.0716 10.3999 11.9C10.3999 12.7285 11.0715 13.4 11.8999 13.4Z" fill="#F3C623"/>
<path d="M11.8999 9.09998C12.7283 9.09998 13.3999 8.4284 13.3999 7.59998C13.3999 6.77155 12.7283 6.09998 11.8999 6.09998C11.0715 6.09998 10.3999 6.77155 10.3999 7.59998C10.3999 8.4284 11.0715 9.09998 11.8999 9.09998Z" fill="#F3C623"/>
<path d="M7.6001 13.4C8.42852 13.4 9.1001 12.7285 9.1001 11.9C9.1001 11.0716 8.42852 10.4 7.6001 10.4C6.77167 10.4 6.1001 11.0716 6.1001 11.9C6.1001 12.7285 6.77167 13.4 7.6001 13.4Z" fill="#F3C623"/>
<path d="M16.3 13.4C17.1285 13.4 17.8 12.7285 17.8 11.9C17.8 11.0716 17.1285 10.4 16.3 10.4C15.4716 10.4 14.8 11.0716 14.8 11.9C14.8 12.7285 15.4716 13.4 16.3 13.4Z" fill="#F3C623"/>
<path d="M11.8999 17.8C12.7283 17.8 13.3999 17.1285 13.3999 16.3C13.3999 15.4716 12.7283 14.8 11.8999 14.8C11.0715 14.8 10.3999 15.4716 10.3999 16.3C10.3999 17.1285 11.0715 17.8 11.8999 17.8Z" fill="#F3C623"/>
<path d="M95.8 11.6C95.3 11.1 94.7 10.9 93.9 10.9C93.3 10.9 92.8 11.1 92.8 11.5C92.8 12 93.3 12.1 94.2 12.3L95 12.5C96 12.7 96.9 13.1 96.9 14.3C96.9 15.8 95.5 16.6 94 16.6C92.4 16.6 91.3 15.8 90.9 15.2L92 14.3C92.4 14.8 93 15.3 94 15.3C94.8 15.3 95.3 15 95.3 14.6C95.3 14.2 94.9 14.1 94.3 13.9L93.3 13.7C92.1 13.4 91.2 13 91.2 11.8C91.2 10.3 92.6 9.70002 93.9 9.70002C95.2 9.70002 96.3 10.3 96.7 10.8L95.8 11.6V11.6ZM33.5 6.90002H40.7V8.40002H37.9V16.4H36.2V8.40002H33.5V6.90002ZM47.4 16.4H45.8V13C45.8 12.5 45.8 12.1 45.7 11.7C45.6 11.2 45.2 10.9 44.5 10.9C43.5 10.9 43 11.7 43 12.7V16.2H41.4V6.90002H43V10.6C43.3 10 44.1 9.60002 45.1 9.60002C45.8 9.60002 46.5 9.80002 46.9 10.4C47.2 10.8 47.4 11.3 47.4 12.6V16.4V16.4ZM54.7 14.9C54.4 15.4 53.5 16.6 51.6 16.6C49.6 16.6 48.3 15.2 48.3 13.1C48.3 11.1 49.7 9.70002 51.6 9.70002C53.7 9.70002 54.7 11.2 54.7 13.2V13.6H49.9C50 14.5 50.6 15.3 51.7 15.3C52.9 15.3 53.4 14.5 53.6 14.2L54.7 14.9ZM49.8 12.3H53C53 11.4 52.3 10.8 51.5 10.8C50.6 10.9 49.9 11.5 49.8 12.3V12.3ZM56.1 12.5H69.5V12.9H56.1V12.5ZM70.8 16.4V6.90002H73.4C74.9 6.90002 75.9 6.90002 76.8 7.60002C77.8 8.30002 78.6 9.80002 78.6 11.6C78.6 13.2 78.1 14.5 77.2 15.4C76.2 16.4 75.1 16.4 73.3 16.4H70.8V16.4ZM72.5 14.9H73.6C74.7 14.9 75.5 14.9 76 14.3C76.5 13.8 76.8 12.8 76.8 11.7C76.8 10.6 76.5 9.60002 75.8 9.00002C75.3 8.50002 74.5 8.50002 73.3 8.50002H72.4L72.5 14.9V14.9ZM82.6 9.60002C84.6 9.60002 85.9 11 85.9 13.1C85.9 15.2 84.6 16.5 82.6 16.5C80.6 16.5 79.3 15.2 79.3 13.1C79.3 11 80.6 9.60002 82.6 9.60002ZM82.6 15.2C83.6 15.2 84.3 14.4 84.3 13.1C84.3 11.8 83.6 11 82.6 11C81.6 11 80.9 11.8 80.9 13.1C80.9 14.4 81.6 15.2 82.6 15.2ZM90.5 16.5C90.2 16.6 89.8 16.6 89.3 16.6C88.7 16.6 88 16.5 87.6 16C87.3 15.7 87.3 15.3 87.3 14.7V11H86V9.80002H87.4V7.50002L89 7.10002V9.80002H90.5V11H89V14.4C89 14.8 89.1 14.9 89.2 15.1C89.3 15.2 89.6 15.3 89.9 15.3C90.2 15.3 90.4 15.3 90.6 15.2V16.5H90.5V16.5Z" fill="#F3C623"/>
</svg>
